<svg xmlns="http://www.w3.org/2000/svg" width="1200" height="600" viewBox="0 0 1200 600">
  <defs>
    <linearGradient id="sky2" x1="0" y1="0" x2="0" y2="1">
      <stop offset="0%" stop-color="#2d4a6e"/>
      <stop offset="100%" stop-color="#5c8a8a"/>
    </linearGradient>
  </defs>
  <rect width="1200" height="600" fill="url(#sky2)"/>
  <rect y="380" width="1200" height="220" fill="#3d6a6a" opacity="0.6"/>
  <rect x="80" y="200" width="120" height="190" fill="#4a7c7c" rx="3"/>
  <rect x="90" y="215" width="20" height="25" fill="#a8dadc" opacity="0.5"/>
  <rect x="120" y="215" width="20" height="25" fill="#a8dadc" opacity="0.5"/>
  <rect x="150" y="215" width="20" height="25" fill="#a8dadc" opacity="0.5"/>
  <rect x="90" y="250" width="20" height="25" fill="#a8dadc" opacity="0.5"/>
  <rect x="120" y="250" width="20" height="25" fill="#a8dadc" opacity="0.5"/>
  <rect x="150" y="250" width="20" height="25" fill="#a8dadc" opacity="0.5"/>
  <rect x="90" y="285" width="20" height="25" fill="#a8dadc" opacity="0.5"/>
  <rect x="120" y="285" width="20" height="25" fill="#a8dadc" opacity="0.5"/>
  <rect x="150" y="285" width="20" height="25" fill="#a8dadc" opacity="0.5"/>
  <rect x="240" y="180" width="120" height="210" fill="#3d6a6a" rx="3"/>
  <rect x="250" y="195" width="20" height="25" fill="#a8dadc" opacity="0.5"/>
  <rect x="280" y="195" width="20" height="25" fill="#a8dadc" opacity="0.5"/>
  <rect x="310" y="195" width="20" height="25" fill="#a8dadc" opacity="0.5"/>
  <rect x="250" y="230" width="20" height="25" fill="#a8dadc" opacity="0.5"/>
  <rect x="280" y="230" width="20" height="25" fill="#a8dadc" opacity="0.5"/>
  <rect x="310" y="230" width="20" height="25" fill="#a8dadc" opacity="0.5"/>
  <rect x="250" y="265" width="20" height="25" fill="#a8dadc" opacity="0.5"/>
  <rect x="280" y="265" width="20" height="25" fill="#a8dadc" opacity="0.5"/>
  <rect x="310" y="265" width="20" height="25" fill="#a8dadc" opacity="0.5"/>
  <rect x="250" y="300" width="20" height="25" fill="#a8dadc" opacity="0.5"/>
  <rect x="280" y="300" width="20" height="25" fill="#a8dadc" opacity="0.5"/>
  <rect x="310" y="300" width="20" height="25" fill="#a8dadc" opacity="0.5"/>
  <rect x="400" y="220" width="120" height="170" fill="#4a7c7c" rx="3"/>
  <rect x="410" y="235" width="20" height="25" fill="#a8dadc" opacity="0.5"/>
  <rect x="440" y="235" width="20" height="25" fill="#a8dadc" opacity="0.5"/>
  <rect x="470" y="235" width="20" height="25" fill="#a8dadc" opacity="0.5"/>
  <rect x="410" y="270" width="20" height="25" fill="#a8dadc" opacity="0.5"/>
  <rect x="440" y="270" width="20" height="25" fill="#a8dadc" opacity="0.5"/>
  <rect x="470" y="270" width="20" height="25" fill="#a8dadc" opacity="0.5"/>
  <rect x="560" y="160" width="120" height="230" fill="#3d6a6a" rx="3"/>
  <rect x="570" y="175" width="20" height="25" fill="#a8dadc" opacity="0.5"/>
  <rect x="600" y="175" width="20" height="25" fill="#a8dadc" opacity="0.5"/>
  <rect x="630" y="175" width="20" height="25" fill="#a8dadc" opacity="0.5"/>
  <rect x="570" y="210" width="20" height="25" fill="#a8dadc" opacity="0.5"/>
  <rect x="600" y="210" width="20" height="25" fill="#a8dadc" opacity="0.5"/>
  <rect x="630" y="210" width="20" height="25" fill="#a8dadc" opacity="0.5"/>
  <rect x="570" y="245" width="20" height="25" fill="#a8dadc" opacity="0.5"/>
  <rect x="600" y="245" width="20" height="25" fill="#a8dadc" opacity="0.5"/>
  <rect x="630" y="245" width="20" height="25" fill="#a8dadc" opacity="0.5"/>
  <rect x="570" y="280" width="20" height="25" fill="#a8dadc" opacity="0.5"/>
  <rect x="600" y="280" width="20" height="25" fill="#a8dadc" opacity="0.5"/>
  <rect x="630" y="280" width="20" height="25" fill="#a8dadc" opacity="0.5"/>
  <rect x="570" y="315" width="20" height="25" fill="#a8dadc" opacity="0.5"/>
  <rect x="600" y="315" width="20" height="25" fill="#a8dadc" opacity="0.5"/>
  <rect x="630" y="315" width="20" height="25" fill="#a8dadc" opacity="0.5"/>
  <rect x="720" y="190" width="120" height="200" fill="#4a7c7c" rx="3"/>
  <rect x="730" y="205" width="20" height="25" fill="#a8dadc" opacity="0.5"/>
  <rect x="760" y="205" width="20" height="25" fill="#a8dadc" opacity="0.5"/>
  <rect x="790" y="205" width="20" height="25" fill="#a8dadc" opacity="0.5"/>
  <rect x="730" y="240" width="20" height="25" fill="#a8dadc" opacity="0.5"/>
  <rect x="760" y="240" width="20" height="25" fill="#a8dadc" opacity="0.5"/>
  <rect x="790" y="240" width="20" height="25" fill="#a8dadc" opacity="0.5"/>
  <rect x="880" y="240" width="120" height="150" fill="#3d6a6a" rx="3"/>
  <rect x="890" y="255" width="20" height="25" fill="#a8dadc" opacity="0.5"/>
  <rect x="920" y="255" width="20" height="25" fill="#a8dadc" opacity="0.5"/>
  <rect x="950" y="255" width="20" height="25" fill="#a8dadc" opacity="0.5"/>
  <rect x="890" y="290" width="20" height="25" fill="#a8dadc" opacity="0.5"/>
  <rect x="920" y="290" width="20" height="25" fill="#a8dadc" opacity="0.5"/>
  <rect x="950" y="290" width="20" height="25" fill="#a8dadc" opacity="0.5"/>
  <line x1="80" y1="390" x2="1120" y2="390" stroke="#a8dadc" stroke-width="1" opacity="0.3"/>
  <text x="600" y="500" font-family="sans-serif" font-size="14" fill="#a8dadc" text-anchor="middle" opacity="0.5">公共房屋發展 · 輪候與供應</text>
</svg>
